<?xml version="1.0" standalone="no"?>
<!DOCTYPE svg PUBLIC "-//W3C//DTD SVG 20010904//EN"
 "http://www.w3.org/TR/2001/REC-SVG-20010904/DTD/svg10.dtd">
<svg version="1.0" xmlns="http://www.w3.org/2000/svg"
 width="1024.000000pt" height="1024.000000pt" viewBox="0 0 1024.000000 1024.000000"
 preserveAspectRatio="xMidYMid meet">

<g transform="translate(0.000000,1024.000000) scale(0.100000,-0.100000)"
fill="#000000" stroke="none">
<path d="M5135 9580 c-55 -11 -118 -19 -140 -19 -43 -1 -226 -36 -365 -71 -47
-12 -103 -25 -125 -30 -22 -5 -110 -34 -195 -64 -220 -77 -238 -84 -308 -117
-34 -16 -65 -29 -68 -29 -3 0 -78 -36 -165 -79 -107 -53 -189 -87 -247 -101
-176 -44 -240 -73 -403 -179 -191 -125 -380 -344 -497 -576 -55 -111 -102
-216 -102 -232 0 -10 -7 -31 -16 -48 -8 -16 -19 -48 -24 -70 -5 -22 -15 -60
-23 -85 -26 -81 -37 -133 -62 -295 -14 -88 -32 -200 -40 -250 -19 -113 -42
-307 -49 -405 -3 -41 -14 -156 -23 -255 -13 -139 -17 -280 -17 -620 0 -473 1
-495 59 -840 93 -560 138 -916 166 -1310 51 -743 21 -1205 -127 -1916 -4 -18
2 -34 21 -57 40 -48 59 -42 109 36 44 68 96 171 96 191 0 6 9 15 20 21 28 15
29 10 33 -160 2 -80 8 -158 12 -175 20 -76 80 -129 193 -171 37 -14 72 -30 78
-35 6 -5 29 -10 50 -12 l39 -2 7 65 c34 281 69 423 99 404 5 -3 9 -115 9 -248
l0 -244 33 -15 c17 -8 56 -20 85 -27 l53 -12 -7 -47 c-4 -25 -13 -68 -20 -96
-13 -50 -13 -50 17 -77 34 -32 64 -36 78 -10 5 10 13 47 17 82 4 36 11 76 16
90 5 14 16 52 23 85 20 86 43 167 55 190 13 28 40 103 50 144 13 50 27 60 40
27 5 -15 10 -33 10 -40 0 -7 6 -32 14 -57 8 -24 24 -81 37 -127 34 -123 39
-126 173 -119 61 3 129 11 151 18 22 6 60 14 85 18 l45 6 5 49 c3 27 11 51 18
54 6 2 12 -3 12 -11 0 -8 6 -20 14 -26 16 -13 56 -128 56 -159 0 -10 8 -52 19
-93 10 -41 21 -101 25 -135 3 -33 8 -67 11 -75 3 -8 0 -23 -8 -32 -12 -17 -35
-18 -288 -17 -152 0 -283 -2 -292 -6 -26 -10 -20 -22 15 -30 18 -3 42 -12 53
-19 11 -7 35 -16 53 -20 18 -4 45 -13 60 -21 20 -10 71 -14 199 -14 206 0 223
-4 223 -59 0 -40 0 -40 58 -56 31 -10 93 -23 137 -29 44 -7 86 -16 93 -20 7
-4 74 -14 150 -22 75 -7 178 -19 227 -25 127 -15 624 -6 795 15 166 20 296 42
420 70 l95 22 6 42 c3 23 8 44 11 48 3 3 89 7 190 9 162 3 190 6 231 24 25 12
53 21 61 21 37 0 26 84 -45 338 -20 73 -17 90 20 99 52 12 83 51 112 142 6 20
15 41 19 46 5 6 13 35 19 65 22 109 39 181 45 187 17 17 21 -24 21 -192 0
-111 4 -188 10 -194 7 -7 23 -6 50 4 22 8 48 14 59 15 10 0 39 7 65 15 25 8
96 25 156 37 127 26 177 51 246 121 85 86 187 251 218 352 5 17 23 68 40 115
17 47 31 91 31 98 0 8 6 28 14 45 14 31 27 81 48 182 38 188 48 241 62 330 8
55 20 141 25 190 26 226 33 288 47 400 8 66 19 172 24 235 6 63 14 147 20 185
15 107 38 302 45 380 3 39 12 113 20 165 8 52 23 174 35 270 11 96 27 225 35
285 38 290 54 499 66 885 6 168 12 346 15 395 5 70 2 97 -10 120 -10 20 -19
82 -25 185 -12 193 -53 489 -93 680 -16 80 -33 165 -37 190 -4 25 -14 65 -23
90 -9 25 -26 79 -38 120 -24 82 -42 132 -71 198 -10 23 -19 49 -19 56 0 8 -6
27 -14 43 -7 15 -20 44 -29 63 -20 47 -73 153 -110 220 -17 30 -38 69 -47 85
-137 258 -420 560 -696 743 -87 57 -330 202 -340 202 -3 0 -35 14 -72 31 -37
18 -78 35 -92 40 -14 4 -56 20 -95 34 -91 35 -184 63 -265 80 -36 7 -78 18
-93 24 -16 6 -44 11 -64 11 -19 0 -61 6 -92 14 -31 8 -101 17 -156 20 -55 3
-131 13 -170 21 -99 21 -341 18 -470 -5z m-2438 -1356 c3 -10 -2 -51 -13 -93
-37 -148 -18 -406 39 -516 41 -80 104 -137 212 -193 131 -67 249 -93 508 -112
65 -4 121 -11 125 -15 24 -23 -144 -40 -321 -32 -87 3 -135 12 -216 36 -237
73 -344 165 -414 356 -27 73 -34 265 -14 352 8 38 18 86 22 108 4 22 12 47 20
55 7 8 15 27 19 43 7 30 23 36 33 11z m5204 -389 c21 -39 38 -76 39 -83 0 -8
6 -28 14 -45 43 -98 76 -335 49 -344 -14 -5 -36 41 -77 162 -15 44 -34 94 -42
112 -8 17 -14 40 -14 51 0 12 -5 33 -11 49 -27 70 -31 179 -6 170 5 -1 27 -34
48 -72z m-47 -227 c26 -36 22 -299 -4 -394 -40 -140 -109 -228 -223 -281 -93
-44 -253 -24 -314 39 -23 24 -24 28 -9 34 9 4 35 -1 56 -11 26 -12 63 -18 108
-17 58 0 77 5 125 32 98 55 141 115 182 254 18 63 34 203 35 304 0 68 15 82
44 40z m-2844 -59 c47 -5 229 -14 405 -20 176 -5 417 -14 535 -18 347 -14 666
-7 892 19 l197 23 48 -24 c59 -30 93 -88 93 -164 0 -27 7 -77 14 -110 8 -33
17 -98 21 -145 4 -47 13 -116 21 -155 29 -148 65 -376 60 -384 -3 -5 -74 -6
-158 -4 -204 7 -431 -9 -481 -33 -77 -37 -63 -124 20 -124 18 0 33 -4 33 -10
0 -5 -4 -10 -9 -10 -5 0 -16 -6 -23 -12 -7 -7 -36 -24 -63 -38 -27 -14 -54
-28 -60 -33 -5 -4 -51 -37 -100 -75 -110 -82 -115 -85 -190 -107 -133 -40
-307 -8 -404 73 -190 159 -483 274 -766 299 -138 12 -585 9 -720 -5 -190 -21
-262 -40 -304 -82 -32 -32 -44 -37 -136 -52 -55 -9 -117 -17 -139 -17 -37 -1
-38 0 -31 27 29 109 66 375 85 602 6 74 17 190 24 258 13 119 14 124 47 158
44 46 134 99 201 119 180 53 622 76 888 44z m120 -1234 c112 -12 207 -30 250
-47 8 -4 29 -9 45 -13 31 -7 88 -30 115 -46 8 -5 29 -15 45 -23 40 -18 144
-111 174 -154 13 -19 32 -60 43 -91 56 -156 -38 -420 -204 -578 -323 -304
-859 -265 -1117 82 -39 52 -131 229 -131 252 0 7 -4 21 -10 31 -34 62 -51 294
-26 365 37 106 160 187 316 207 47 6 108 14 135 19 75 13 225 11 365 -4z
m2228 -19 c2 -16 -1 -33 -7 -39 -16 -16 -13 -37 5 -37 16 0 44 -56 44 -89 0
-31 -17 -34 -56 -10 -32 20 -35 25 -29 55 l6 33 -73 0 c-40 0 -89 5 -108 11
-70 20 -225 5 -261 -26 -8 -8 -19 -14 -22 -14 -14 0 -86 -57 -112 -88 -35 -42
-30 -72 15 -94 33 -17 60 -43 60 -59 0 -4 -16 -16 -35 -28 -41 -24 -42 -31
-14 -100 16 -38 33 -58 66 -80 84 -56 147 -49 207 21 55 64 66 96 66 191 0 70
-4 92 -25 131 -32 61 -32 66 8 66 73 0 210 -74 226 -123 13 -40 -5 -117 -43
-181 -20 -34 -23 -46 -13 -54 20 -17 62 26 108 112 41 77 43 79 59 58 9 -11
27 -65 40 -119 37 -160 45 -190 94 -355 44 -149 46 -160 32 -192 -19 -46 -71
-71 -225 -113 -118 -32 -327 -12 -461 44 -65 27 -142 71 -148 86 -2 4 -8 7
-14 7 -19 0 -108 94 -157 165 -89 130 -119 210 -128 346 -7 102 25 195 88 259
119 119 246 181 439 216 47 9 101 19 120 24 19 5 82 8 140 7 l105 -2 3 -29z
m-3310 -218 c5 -7 12 -26 15 -43 24 -140 52 -252 68 -269 5 -6 9 -17 9 -25 0
-9 7 -29 15 -45 8 -15 15 -33 15 -38 0 -20 84 -175 128 -238 61 -86 182 -207
257 -257 58 -39 184 -103 203 -103 5 0 38 -10 73 -21 55 -18 87 -21 234 -21
140 0 184 4 250 21 43 12 84 26 89 31 6 6 18 10 28 10 10 0 35 10 56 23 20 13
44 26 52 29 38 14 143 103 200 169 58 67 170 228 170 244 0 3 11 31 25 61 14
30 34 82 45 115 12 34 30 74 42 90 22 30 82 59 122 59 32 0 88 -24 107 -47 17
-20 49 -85 49 -101 0 -6 8 -25 17 -44 27 -54 29 -58 62 -168 34 -106 73 -178
136 -245 90 -95 103 -133 64 -189 -40 -58 -103 -92 -236 -126 -38 -10 -43 -14
-43 -40 0 -16 7 -33 16 -38 38 -21 200 33 281 95 42 32 78 86 88 131 8 41 27
49 60 28 13 -9 30 -16 38 -16 7 0 18 -5 25 -12 31 -31 210 -77 332 -84 105 -7
256 8 326 32 69 23 78 15 53 -48 -11 -29 -24 -64 -28 -78 -11 -34 -175 -324
-215 -378 -17 -24 -45 -60 -62 -80 -17 -21 -35 -44 -40 -53 -13 -25 -98 -122
-194 -222 -144 -152 -322 -302 -472 -400 -87 -57 -285 -149 -353 -164 -33 -7
-148 -16 -255 -19 -163 -5 -223 -3 -365 15 -178 22 -363 52 -436 71 -220 57
-497 156 -619 220 -30 16 -84 43 -120 60 -119 57 -357 207 -445 281 -11 10
-54 44 -95 77 -101 81 -321 300 -395 392 -32 41 -67 82 -77 92 -38 38 -41 28
-43 -107 -2 -145 -18 -230 -65 -329 -34 -74 -51 -97 -110 -153 -69 -67 -121
-88 -210 -86 -72 1 -95 7 -150 38 -25 14 -83 68 -110 101 -25 32 -70 112 -70
126 0 7 -7 26 -16 43 -21 40 -44 175 -44 260 0 73 24 220 39 239 5 6 14 28 20
48 21 65 94 94 107 43 7 -28 3 -47 -20 -115 -9 -25 -23 -88 -32 -140 -15 -89
-15 -102 0 -185 15 -78 36 -140 68 -195 4 -8 14 -26 21 -40 43 -86 151 -136
243 -111 106 29 207 193 228 372 10 82 -18 267 -49 329 -32 64 -31 80 7 107
32 23 32 23 53 3 28 -26 47 -25 72 3 45 49 55 94 27 122 -23 22 -62 12 -96
-26 -15 -16 -29 -29 -32 -29 -3 0 -23 15 -43 34 -46 41 -102 71 -164 87 -59
16 -95 7 -103 -27 -10 -37 13 -58 77 -73 31 -7 68 -24 88 -41 29 -24 32 -31
23 -47 -10 -15 -24 -18 -96 -17 -105 1 -172 22 -258 80 -137 93 -204 198 -243
378 -21 97 -21 100 -3 184 20 99 61 170 134 230 64 53 118 72 202 72 116 0
216 -64 360 -228 35 -40 52 -52 74 -52 16 0 44 -11 62 -25 18 -14 35 -25 37
-25 6 0 87 127 87 135 0 4 24 41 54 84 29 43 57 86 60 97 3 10 15 30 25 43 19
25 -2 22 376 60 44 4 85 9 91 10 6 0 16 -5 22 -11z m697 -2397 c39 -17 80 -30
220 -70 110 -30 156 -42 215 -52 30 -6 81 -17 112 -25 32 -8 80 -14 107 -14
28 0 52 -4 55 -8 3 -5 7 -67 10 -138 6 -154 36 -257 117 -404 49 -87 51 -94
46 -149 -10 -115 -77 -209 -186 -260 -51 -23 -67 -26 -171 -26 -99 1 -122 4
-165 24 -63 29 -84 38 -115 51 -44 18 -127 68 -187 112 -124 92 -284 232 -289
255 -4 14 3 49 15 82 11 32 21 65 21 74 0 9 6 31 14 49 29 69 56 226 62 368 4
80 9 149 11 153 6 11 57 0 108 -22z m-269 -834 c45 -50 161 -145 254 -208 36
-24 67 -46 70 -49 30 -30 224 -130 253 -130 8 0 32 -8 53 -17 30 -13 68 -17
169 -17 120 -1 135 2 196 27 95 40 176 109 212 180 27 54 50 77 63 64 17 -17
121 -635 134 -797 6 -80 13 -151 16 -158 5 -17 44 3 44 23 0 7 7 26 15 42 9
15 20 40 25 56 5 15 14 27 20 27 11 0 13 -32 11 -147 -2 -83 9 -113 44 -113
15 0 31 -10 42 -26 14 -23 18 -68 26 -313 4 -157 6 -295 3 -306 -5 -20 -9 -20
-872 -18 -477 2 -869 5 -872 7 -2 3 -6 56 -8 118 -4 104 -14 181 -45 343 -30
157 -50 228 -87 305 -13 28 -16 59 -14 150 2 63 7 134 12 157 6 23 16 89 24
146 8 56 20 115 25 131 6 15 11 41 11 58 0 17 9 65 19 107 23 90 40 174 52
256 11 76 37 145 54 145 7 0 30 -19 51 -43z m2056 -1233 c50 -167 99 -367 96
-392 l-3 -27 -182 -3 c-175 -2 -182 -2 -193 18 -6 12 -14 100 -17 201 -5 150
-4 179 8 180 8 1 53 0 101 -1 85 -2 87 -1 104 27 28 44 47 64 58 60 5 -2 18
-30 28 -63z"/>
<path d="M4835 6649 c-71 -17 -69 -44 3 -54 26 -4 72 -13 102 -20 132 -32 192
-45 300 -66 63 -12 123 -26 133 -31 25 -13 183 -38 244 -38 90 0 131 37 105
95 -19 42 -51 53 -207 70 -171 18 -291 32 -385 45 -82 12 -243 11 -295 -1z"/>
<path d="M4822 6209 c3 -13 8 -31 12 -40 9 -21 -91 -88 -147 -97 -48 -9 -60
-29 -20 -37 15 -4 33 -8 39 -10 6 -2 21 -35 34 -75 33 -104 128 -203 154 -161
3 5 -8 28 -25 51 -43 60 -66 142 -49 175 13 24 80 75 100 75 6 0 8 -14 4 -37
-5 -34 -2 -40 25 -61 40 -30 39 -50 -4 -68 -33 -13 -35 -17 -35 -60 0 -43 4
-50 53 -95 51 -47 117 -79 163 -79 57 0 144 63 180 131 25 45 26 199 2 226
-23 26 -32 73 -14 73 30 0 102 -32 164 -75 37 -25 68 -40 70 -35 12 36 -96
140 -193 186 -51 24 -76 29 -160 32 -62 2 -129 -2 -177 -11 -74 -14 -137 -11
-168 8 -10 6 -12 2 -8 -16z"/>
<path d="M2702 5670 c-34 -14 -22 -33 29 -47 83 -24 119 -44 119 -68 0 -13 -7
-28 -15 -35 -27 -22 -66 -112 -63 -144 4 -39 25 -45 33 -8 7 33 87 122 109
122 23 0 84 -66 109 -118 39 -81 65 -59 47 38 -21 111 -78 188 -174 235 -60
29 -155 42 -194 25z"/>
<path d="M5321 4561 c-17 -32 0 -60 91 -147 88 -84 168 -135 278 -177 129 -48
237 -58 362 -32 70 15 93 23 183 68 78 40 130 97 102 114 -6 4 -115 7 -242 8
-197 1 -241 4 -310 22 -79 20 -177 51 -225 71 -14 6 -50 20 -80 32 -30 12 -62
28 -70 35 -8 7 -29 16 -47 20 -26 5 -34 2 -42 -14z"/>
</g>
</svg>
